<svg width="164" height="310" viewBox="0 0 164 310" fill="none" xmlns="http://www.w3.org/2000/svg">
<path d="M132.914 4.26758C126.277 13.7904 115.664 27.6919 108.283 37.4621C94.8752 55.2096 83.4553 70.4389 78.9105 76.504C72.4111 85.1776 65.7172 93.8434 49.4256 114.375C38.0643 128.692 23.8553 148.248 20.238 153.375C16.2576 159.017 10.5296 166.57 5.95214 172.683C4.91611 174.067 3.44035 175.328 3.50186 176.124C3.64694 178.002 29.8873 177.333 73.4429 177.855C110.601 178.301 130.85 181.245 136.125 182.554C142.948 183.94 148.643 184.254 153.409 184.2C155.544 184.043 157.1 183.621 160.272 182.868" stroke="black" stroke-width="7" stroke-linecap="round"/>
<path d="M131.547 3.5C131.212 4.57572 130.509 9.27934 128.623 27.3235C127.171 41.2134 125.103 64.7323 123.85 92.8323C122.597 120.932 122.321 152.906 122.04 170.26C121.731 189.384 120.894 204.794 120.513 226.176C120.293 238.572 122.821 244.056 124.679 251.366C127.941 264.206 129.739 270.214 130.443 279.355C131.15 290.557 131.954 298.504 132.63 301.923C132.949 303.523 133.22 304.848 133.5 306.5" stroke="black" stroke-width="7" stroke-linecap="round"/>
</svg>
