<svg width="160" height="320" viewBox="0 0 160 320" fill="none" xmlns="http://www.w3.org/2000/svg">
<path d="M144.339 3.5C140.79 8.26321 120.58 30.5471 101.323 54.6655C79.9508 81.4317 76.3022 92.926 67.3368 103.895C57.734 115.643 44.3561 134.299 36.6937 141.813C22.6991 155.537 8.22223 177.513 4.98438 183.266C8.32441 184.652 25.363 184.658 63.4129 184.01C87.2011 183.678 120.083 183.339 156.377 182.604" stroke="black" stroke-width="7" stroke-linecap="round"/>
<path d="M140.984 4.5C140.984 13.0738 140.984 20.4027 140.452 44.5687C139.983 65.8238 138.854 105.33 138.194 126.41C137.489 148.952 136.621 152.178 133.774 165.061C126.79 196.676 121.189 221.697 118.565 228.25C115.284 236.448 112.135 246.079 110.329 254.15C107.634 266.193 106.314 292.378 105.526 307.075C105.367 308.458 105.158 309.817 105.05 311.292C104.942 312.767 104.942 314.317 105.254 316.5" stroke="black" stroke-width="7" stroke-linecap="round"/>
</svg>
