<svg width="338" height="174" viewBox="0 0 338 174" fill="none" xmlns="http://www.w3.org/2000/svg">
<path d="M336.5 87.8715C334.884 83.2885 332.065 77.9163 324.014 69.0877C318.34 62.8653 307.944 53.9837 298.469 46.5505C288.994 39.1174 280.372 33.6263 273.124 29.3856C265.876 25.1448 260.262 22.3209 253.761 19.611C247.26 16.9011 240.042 14.3909 225.697 11.2935C211.352 8.19619 190.099 4.58777 178.048 2.72889C165.997 0.870005 163.791 0.870005 151.928 4.47843C140.066 8.08685 118.612 15.3037 104.553 20.355C90.4937 25.4063 84.4788 28.0734 75.3652 33.448C66.2516 38.8226 54.2216 46.8239 44.9167 53.7698C35.6117 60.7156 29.3962 66.3636 24.5903 71.3127C16.0913 80.065 11.4668 87.8382 7.83044 95.4187C3.39259 104.67 1.93394 113.197 1.52685 119.047C1.14157 124.584 4.94142 132.038 10.0936 140.424C14.1371 147.006 20.3312 150.926 27.4915 154.482C36.9649 159.187 51.8703 161.704 71.0423 164.552C81.9208 166.168 95.4272 166.772 126.006 167.1C156.586 167.428 203.903 167.114 234.294 165.854C264.685 164.594 276.715 162.398 284.115 160.874C294.018 158.835 298.806 156.032 304.056 151.927C310.521 146.871 317.021 137.377 322.79 126.929C329.499 114.779 323.753 103.27 316.818 93.1891C311.568 85.5589 300.86 73.6945 291.582 64.0982C282.304 54.5019 274.285 47.7557 267.647 42.6331C261.009 37.5105 255.997 34.2158 248.703 30.6359C241.409 27.056 231.985 23.2907 221.517 20.1744C211.048 17.058 199.82 14.7047 185.114 13.1001C170.408 11.4956 152.563 10.7112 139.561 10.5424C126.559 10.3736 118.94 10.8443 108.499 12.2634C98.058 13.6825 85.0256 16.0358 74.5024 18.6601C55.9876 23.2774 45.102 28.7438 38.0329 32.6137C30.2086 36.897 22.8284 44.0903 16.5552 51.2928C12.7518 55.6597 10.8531 60.1118 8.62937 64.7804C7.0426 68.1118 4.57688 75.1351 2.45037 86.2052C0.582804 95.9272 3.13085 105.101 6.05936 113.247C8.53907 120.145 12.2444 124.935 18.2807 131.082C22.6388 135.52 30.7329 141.936 40.3751 147.684C50.0173 153.432 61.2452 158.138 75.8512 162.289C90.4573 166.439 108.101 169.891 130.323 171.433C152.545 172.976 178.811 172.505 193.243 172.106C209.496 171.656 215.951 170.599 231.861 166.983C243.159 163.839 261.003 158.034 270.496 154.73C279.99 151.425 280.591 150.798 282.426 148.725" stroke="#262626" stroke-width="3" stroke-linecap="round"/>
</svg>
