<svg width="256" height="241" viewBox="0 0 256 241" fill="none" xmlns="http://www.w3.org/2000/svg">
<path d="M96.2958 118.24C72.9441 107.402 41.1762 89.808 31.3365 82.7309C20.2835 74.7811 10.021 68.8554 6.4856 65.0332C5.06828 63.5009 6.05718 61.6583 7.17008 60.6245C12.1808 55.9697 34.9137 65.565 60.3535 73.7882C95.5753 85.1734 119.353 93.8218 121.784 90.2579C128.725 80.0823 136.943 53.5567 145.936 34.8285C150.779 24.7437 154.65 16.8792 158.636 10.6049C173.185 -12.2912 155.506 53.0231 153.827 68.3492C152.18 83.3819 150.777 93.2675 151.198 99.5588C151.35 101.825 158.461 97.2847 172.091 90.5873C218.484 67.791 227.345 66.2317 237.352 62.0669C242.675 59.8518 246.94 58.0799 248.736 58.2001C255.06 58.6232 235.952 68.9877 219.84 81.6479C209.619 89.6791 200.599 96.7605 193.151 102.429C183.057 110.11 179.065 116.027 174.242 121.069C169.341 126.193 192.965 128.77 200.778 134.558C209.877 141.3 222.914 149.973 230.844 154.927C239.342 160.236 244.343 165.523 248.663 169.282C249.45 169.967 246.637 171.376 244.663 171.733C240.734 172.444 211.735 161.273 171.827 146.574C158.786 141.771 160.228 142.783 161.222 144.581C166.483 154.093 167.01 168.944 168.454 189.23C169.203 199.77 170.222 209.649 170.104 215.939C169.972 222.998 163.423 197.55 158.715 185.002C149.386 160.142 147.063 148.679 145.064 144.697C144.302 143.179 142.221 143.955 140.555 144.95C131.638 150.274 124.406 163.122 112.277 177.961C95.6671 198.283 86.3599 215.978 74.7465 230.795C72.9843 233.043 72.0776 234.48 71.8028 234.227C60.6336 223.935 84.5677 195.06 86.6283 185.585C89.0516 174.442 90.5445 164.243 91.6638 157.293C92.3669 153.44 95.6655 143.586 99.8258 130.962C101.078 126.14 100.585 124.535 98.4941 121.214" stroke="#5FA0FB" stroke-width="11.5714" stroke-linecap="round"/>
</svg>
