<svg width="155" height="129" viewBox="0 0 155 129" fill="none" xmlns="http://www.w3.org/2000/svg">
<path d="M153.669 15.3918C151.304 13.7054 136.943 7.92716 112.318 1.82677C101.852 -0.76591 83.4064 3.34887 69.7873 8.54624C59.3595 12.5258 56.1898 30.0598 52.8509 43.8399C51.3111 50.1945 52.3963 55.3995 52.7598 58.833C52.9389 60.5257 53.9505 61.9748 55.2764 62.5573C56.6023 63.1399 58.4273 62.7756 59.8299 62.0528C62.4417 60.7068 63.4032 56.8212 64.0296 52.6131C64.5133 49.3633 63.7681 44.4955 60.8912 38.054C58.4255 32.5334 53.8756 29.4522 49.3688 27.2906C44.3349 24.8763 39.1777 25.5967 35.281 26.5012C26.2012 28.6086 19.3788 37.0559 10.5154 51.2009C0.685192 66.8886 -0.375308 82.903 2.27349 102.969C3.57364 108.56 5.32377 113.524 7.41707 117.615C9.51038 121.706 11.8938 124.772 14.3495 127.932" stroke="#262626" stroke-width="2.05723" stroke-linecap="round"></path>
</svg>