<svg xmlns="http://www.w3.org/2000/svg" viewBox="0 0 232.977 177.341" fill="none">
<g transform="translate(18.065 3.842)"><path d="M 86.797 3.161 C 88.543 3.161 89.958 1.746 89.958 0 C 89.958 -1.746 88.543 -3.161 86.797 -3.161 L 86.797 0 L 86.797 3.161 Z M 44.931 15.657 L 43.183 13.022 L 44.931 15.657 Z M 7.336 60.684 L 4.652 59.014 L 7.336 60.684 Z M 0.001 111.437 L -3.16 111.41 L 0.001 111.437 Z M 21.144 143.931 L 18.954 146.211 L 21.144 143.931 Z M 47.935 158.639 L 48.94 155.642 L 48.94 155.642 L 47.935 158.639 Z M 87.616 166.966 L 88.107 163.843 L 87.616 166.966 Z M 138.334 166.907 L 137.479 163.864 L 137.479 163.864 L 138.334 166.907 Z M 178.701 150.842 L 177.435 147.946 L 177.435 147.946 L 178.701 150.842 Z M 196.248 138.986 L 198.623 141.072 L 198.623 141.072 L 196.248 138.986 Z M 201.797 92.963 L 204.946 92.681 L 201.797 92.963 Z M 186.805 62.985 L 184.133 64.675 L 184.133 64.675 L 186.805 62.985 Z M 152.481 27.127 L 154.644 24.823 L 154.453 24.644 L 154.236 24.498 L 152.481 27.127 Z M 107.631 7.884 L 107.899 4.734 L 107.847 4.73 L 107.795 4.727 L 107.631 7.884 Z M 89.555 3.854 C 87.815 3.708 86.286 5 86.14 6.74 C 85.994 8.479 87.287 10.008 89.026 10.154 L 89.29 7.004 L 89.555 3.854 Z M 86.797 0 L 86.797 -3.161 C 80.297 -3.161 63.841 -0.679 43.183 13.022 L 44.931 15.657 L 46.678 18.291 C 66.362 5.235 81.614 3.161 86.797 3.161 L 86.797 0 Z M 44.931 15.657 L 43.183 13.022 C 35.479 18.132 28.15 25.976 21.652 34.264 C 15.128 42.585 9.304 51.538 4.652 59.014 L 7.336 60.684 L 10.02 62.354 C 14.63 54.945 20.314 46.218 26.628 38.164 C 32.968 30.077 39.805 22.849 46.678 18.291 L 44.931 15.657 Z M 7.336 60.684 L 4.652 59.014 C 1.369 64.29 -0.485 71.427 -1.582 80.042 C -2.685 88.706 -3.058 99.202 -3.16 111.41 L 0.001 111.437 L 3.162 111.463 C 3.264 99.296 3.637 89.112 4.69 80.841 C 5.749 72.521 7.46 66.468 10.02 62.354 L 7.336 60.684 Z M 0.001 111.437 L -3.16 111.41 C -3.225 119.289 -1.148 124.793 2.856 130.025 C 6.632 134.96 12.289 139.809 18.954 146.211 L 21.144 143.931 L 23.334 141.651 C 16.236 134.834 11.262 130.607 7.877 126.183 C 4.721 122.058 3.109 117.923 3.162 111.463 L 0.001 111.437 Z M 21.144 143.931 L 18.954 146.211 C 25.978 152.956 33.159 157.018 46.93 161.636 L 47.935 158.639 L 48.94 155.642 C 35.715 151.207 29.465 147.539 23.334 141.651 L 21.144 143.931 Z M 47.935 158.639 L 46.93 161.636 C 55.901 164.644 72.76 167.829 87.125 170.088 L 87.616 166.966 L 88.107 163.843 C 73.695 161.576 57.338 158.458 48.94 155.642 L 47.935 158.639 Z M 87.616 166.966 L 87.125 170.088 C 113.538 174.243 130.948 172.265 139.188 169.951 L 138.334 166.907 L 137.479 163.864 C 130.335 165.87 113.88 167.897 88.107 163.843 L 87.616 166.966 Z M 138.334 166.907 L 139.188 169.951 C 144.186 168.547 159.079 162.872 179.968 153.739 L 178.701 150.842 L 177.435 147.946 C 156.512 157.093 141.997 162.595 137.479 163.864 L 138.334 166.907 Z M 178.701 150.842 L 179.968 153.739 C 191.207 148.825 195.475 144.656 198.623 141.072 L 196.248 138.986 L 193.872 136.9 C 191.322 139.803 187.807 143.411 177.435 147.946 L 178.701 150.842 Z M 196.248 138.986 L 198.623 141.072 C 200.722 138.682 202.111 135.229 203.078 131.548 C 204.065 127.792 204.701 123.442 205.082 118.954 C 205.843 109.974 205.611 100.119 204.946 92.681 L 201.797 92.963 L 198.649 93.245 C 199.287 100.387 199.507 109.869 198.782 118.419 C 198.419 122.695 197.826 126.658 196.963 129.942 C 196.081 133.301 195 135.616 193.872 136.9 L 196.248 138.986 Z M 201.797 92.963 L 204.946 92.681 C 204.452 87.157 201.946 81.583 199.007 76.394 C 196.081 71.228 192.407 65.928 189.476 61.295 L 186.805 62.985 L 184.133 64.675 C 187.281 69.651 190.671 74.506 193.506 79.51 C 196.327 84.49 198.278 89.101 198.649 93.245 L 201.797 92.963 Z M 186.805 62.985 L 189.476 61.295 C 187.113 57.559 182.701 52.499 176.849 46.445 C 170.947 40.338 163.409 33.051 154.644 24.823 L 152.481 27.127 L 150.317 29.432 C 159.056 37.636 166.507 44.842 172.304 50.839 C 178.151 56.888 182.15 61.541 184.133 64.675 L 186.805 62.985 Z M 152.481 27.127 L 154.236 24.498 C 133.539 10.682 117.594 5.56 107.899 4.734 L 107.631 7.884 L 107.363 11.034 C 115.651 11.739 130.576 16.306 150.726 29.757 L 152.481 27.127 Z M 107.631 7.884 L 107.795 4.727 C 102.549 4.455 96.913 4.471 89.555 3.854 L 89.29 7.004 L 89.026 10.154 C 96.454 10.777 102.683 10.793 107.467 11.041 L 107.631 7.884 Z" fill="currentColor" fill-rule="nonzero"></path></g>
<g transform="translate(85.071 54.84)"><path d="M 3.161 0 C 3.161 -1.746 1.746 -3.161 0 -3.161 C -1.746 -3.161 -3.161 -1.746 -3.161 0 L 0 0 L 3.161 0 Z M 0.376 3.523 L 3.477 2.908 L 0.376 3.523 Z M 4.39 0.163 C 3.458 -1.313 1.506 -1.755 0.029 -0.823 C -1.447 0.109 -1.888 2.061 -0.957 3.537 L 1.717 1.85 L 4.39 0.163 Z M 0 0 L -3.161 0 C -3.161 0.448 -3.156 1.963 -2.725 4.137 L 0.376 3.523 L 3.477 2.908 C 3.156 1.287 3.161 0.221 3.161 0 L 0 0 Z M 0.376 3.523 L -2.725 4.137 C -2.411 5.721 -1.357 6.686 -0.479 7.186 C 0.365 7.666 1.256 7.859 1.952 7.906 L 2.166 4.752 L 2.38 1.598 C 2.414 1.601 2.494 1.603 2.65 1.692 C 2.841 1.8 3.331 2.173 3.477 2.908 L 0.376 3.523 Z M 2.166 4.752 L 1.952 7.906 C 2.824 7.965 3.748 7.795 4.556 7.344 C 5.198 6.986 6.673 5.869 6.497 3.84 L 3.348 4.115 L 0.198 4.389 C 0.053 2.715 1.268 1.939 1.477 1.822 C 1.853 1.613 2.171 1.584 2.38 1.598 L 2.166 4.752 Z M 3.348 4.115 L 6.497 3.84 C 6.413 2.88 5.952 2.216 5.779 1.977 C 5.601 1.731 5.368 1.466 5.285 1.369 C 5.053 1.099 4.761 0.751 4.39 0.163 L 1.717 1.85 L -0.957 3.537 C -0.356 4.489 0.152 5.096 0.485 5.485 C 0.57 5.584 0.612 5.631 0.652 5.68 C 0.691 5.726 0.681 5.717 0.654 5.679 C 0.628 5.643 0.538 5.516 0.446 5.319 C 0.348 5.111 0.234 4.793 0.198 4.389 L 3.348 4.115 Z" fill="currentColor" fill-rule="nonzero"></path></g>
<g transform="translate(136.972 53.497)"><path d="M 1.33 4.34 C 3.076 4.34 4.492 2.925 4.492 1.179 C 4.492 -0.567 3.076 -1.982 1.33 -1.982 L 1.33 1.179 L 1.33 4.34 Z M 1.505 2.724 L -1.459 3.822 L 1.505 2.724 Z M 1.097 0.676 L 3.304 2.939 L 3.304 2.939 L 1.097 0.676 Z M 0.124 6.461 L -3.017 6.821 L 0.124 6.461 Z M 5.233 4.261 C 4.623 2.625 2.803 1.793 1.167 2.402 C -0.469 3.011 -1.301 4.831 -0.692 6.468 L 2.27 5.364 L 5.233 4.261 Z M 1.33 1.179 L 1.33 -1.982 C -0.648 -1.982 -1.45 -0.365 -1.527 -0.211 C -1.737 0.206 -1.813 0.581 -1.843 0.752 C -1.912 1.147 -1.912 1.519 -1.896 1.801 C -1.863 2.404 -1.727 3.1 -1.459 3.822 L 1.505 2.724 L 4.469 1.626 C 4.414 1.476 4.413 1.4 4.416 1.448 C 4.416 1.453 4.427 1.602 4.385 1.844 C 4.368 1.938 4.31 2.253 4.12 2.631 C 4.025 2.819 3.821 3.18 3.437 3.528 C 3.023 3.903 2.304 4.34 1.33 4.34 L 1.33 1.179 Z M 1.505 2.724 L -1.459 3.822 C -1.196 4.532 -0.687 5.169 0.036 5.576 C 0.703 5.951 1.352 6.019 1.791 6.009 C 2.611 5.989 3.255 5.69 3.596 5.505 C 4.329 5.105 5.083 4.433 5.577 3.553 L 2.821 2.004 L 0.066 0.456 C 0.212 0.195 0.373 0.061 0.568 -0.046 C 0.639 -0.084 1.028 -0.297 1.643 -0.312 C 1.98 -0.32 2.539 -0.27 3.134 0.065 C 3.785 0.431 4.239 1.004 4.469 1.626 L 1.505 2.724 Z M 2.821 2.004 L 5.577 3.553 C 6.034 2.74 6.245 1.824 6.256 0.994 C 6.263 0.347 6.154 -1.178 4.884 -2.269 L 2.825 0.13 L 0.766 2.528 C 0.278 2.109 0.086 1.644 0.014 1.414 C -0.062 1.171 -0.067 0.994 -0.066 0.917 C -0.065 0.789 -0.043 0.649 0.066 0.456 L 2.821 2.004 Z M 2.825 0.13 L 4.884 -2.269 C 3.404 -3.539 1.682 -3.147 1.007 -2.916 C 0.173 -2.63 -0.555 -2.128 -1.11 -1.587 L 1.097 0.676 L 3.304 2.939 C 3.297 2.947 3.286 2.956 3.264 2.97 C 3.246 2.982 3.18 3.023 3.059 3.064 C 2.951 3.101 2.687 3.178 2.309 3.158 C 1.905 3.136 1.31 2.996 0.766 2.528 L 2.825 0.13 Z M 1.097 0.676 L -1.11 -1.587 C -2.433 -0.297 -2.886 1.42 -3.055 2.727 C -3.234 4.102 -3.163 5.55 -3.017 6.821 L 0.124 6.461 L 3.264 6.1 C 3.148 5.086 3.128 4.203 3.214 3.539 C 3.309 2.807 3.474 2.774 3.304 2.939 L 1.097 0.676 Z M 0.124 6.461 L -3.017 6.821 C -2.729 9.329 -0.808 10.885 1.146 11.059 L 1.426 7.911 L 1.707 4.762 C 2.174 4.803 2.544 4.993 2.806 5.243 C 3.11 5.534 3.238 5.871 3.264 6.1 L 0.124 6.461 Z M 1.426 7.911 L 1.146 11.059 C 3.413 11.261 5.126 9.643 5.615 7.933 L 2.575 7.064 L -0.464 6.196 C -0.337 5.752 -0.079 5.407 0.234 5.17 C 0.553 4.929 1.065 4.705 1.707 4.762 L 1.426 7.911 Z M 2.575 7.064 L 5.615 7.933 C 5.894 6.958 5.766 6.086 5.643 5.55 C 5.522 5.023 5.329 4.52 5.233 4.261 L 2.27 5.364 L -0.692 6.468 C -0.632 6.629 -0.593 6.734 -0.561 6.829 C -0.546 6.873 -0.536 6.906 -0.529 6.929 C -0.522 6.953 -0.52 6.963 -0.52 6.962 C -0.52 6.962 -0.524 6.945 -0.528 6.914 C -0.533 6.884 -0.538 6.836 -0.54 6.772 C -0.544 6.643 -0.534 6.44 -0.464 6.196 L 2.575 7.064 Z" fill="currentColor" fill-rule="nonzero"></path></g>
<g transform="translate(63.922 83.027)"><path d="M 3.161 12.29 C 3.161 10.544 1.746 9.129 0 9.129 C -1.746 9.129 -3.161 10.544 -3.161 12.29 L 0 12.29 L 3.161 12.29 Z M 0.083 16.169 L -3.076 16.279 L 0.083 16.169 Z M 23.224 35.706 L 21.613 38.425 L 23.224 35.706 Z M 46.455 41.545 L 46.135 44.689 L 46.455 41.545 Z M 77.157 41.918 L 77.581 45.051 L 77.157 41.918 Z M 92.736 32.58 L 90.282 30.586 L 90.282 30.586 L 92.736 32.58 Z M 100.119 15.702 L 97.073 14.856 L 97.073 14.856 L 100.119 15.702 Z M 102.622 0.492 L 99.485 0.881 L 102.622 0.492 Z M 64.288 18.189 L 65.601 21.065 L 65.601 21.065 L 64.288 18.189 Z M 35.308 23.451 L 35.258 26.612 L 35.308 23.451 Z M 14.06 18.688 L 12.613 21.499 L 12.795 21.593 L 12.987 21.662 L 14.06 18.688 Z M 3.709 13.427 L 2.082 16.137 L 2.117 16.159 L 2.154 16.179 L 3.709 13.427 Z M 2.711 9.09 C 1.189 8.234 -0.738 8.773 -1.595 10.294 C -2.451 11.816 -1.912 13.743 -0.39 14.599 L 1.16 11.845 L 2.711 9.09 Z M 0 12.29 L -3.161 12.29 C -3.161 12.416 -3.161 13.849 -3.076 16.279 L 0.083 16.169 L 3.242 16.059 C 3.161 13.716 3.161 12.357 3.161 12.29 L 0 12.29 Z M 0.083 16.169 L -3.076 16.279 C -3.001 18.449 -2.044 20.403 -0.761 22.11 C 0.526 23.821 2.301 25.498 4.39 27.169 C 8.563 30.505 14.483 34.2 21.613 38.425 L 23.224 35.706 L 24.836 32.986 C 17.682 28.747 12.121 25.256 8.339 22.231 C 6.45 20.721 5.13 19.424 4.292 18.31 C 3.452 17.193 3.256 16.471 3.242 16.059 L 0.083 16.169 Z M 23.224 35.706 L 21.613 38.425 C 29.432 43.058 37.009 43.762 46.135 44.689 L 46.455 41.545 L 46.775 38.4 C 37.447 37.451 31.273 36.8 24.836 32.986 L 23.224 35.706 Z M 46.455 41.545 L 46.135 44.689 C 63.317 46.436 75.276 45.362 77.581 45.051 L 77.157 41.918 L 76.733 38.785 C 74.923 39.03 63.463 40.096 46.775 38.4 L 46.455 41.545 Z M 77.157 41.918 L 77.581 45.051 C 84.851 44.067 91.083 39.628 95.19 34.573 L 92.736 32.58 L 90.282 30.586 C 86.904 34.746 82.01 38.071 76.733 38.785 L 77.157 41.918 Z M 92.736 32.58 L 95.19 34.573 C 99.857 28.827 101.72 21.752 103.165 16.548 L 100.119 15.702 L 97.073 14.856 C 95.563 20.295 93.979 26.036 90.282 30.586 L 92.736 32.58 Z M 100.119 15.702 L 103.165 16.548 C 104.217 12.758 104.934 9.341 105.356 6.577 C 105.761 3.924 105.943 1.587 105.76 0.104 L 102.622 0.492 L 99.485 0.881 C 99.553 1.429 99.504 3.017 99.106 5.622 C 98.725 8.116 98.064 11.288 97.073 14.856 L 100.119 15.702 Z M 102.622 0.492 L 105.76 0.104 C 105.646 -0.811 105.193 -1.785 104.263 -2.452 C 103.44 -3.043 102.58 -3.15 102.069 -3.16 C 101.098 -3.18 100.218 -2.868 99.791 -2.702 L 100.937 0.244 L 102.082 3.191 C 102.167 3.158 102.218 3.143 102.233 3.14 C 102.265 3.132 102.153 3.165 101.942 3.161 C 101.755 3.157 101.181 3.118 100.575 2.683 C 99.861 2.17 99.554 1.439 99.485 0.881 L 102.622 0.492 Z M 100.937 0.244 L 99.791 -2.702 C 99.267 -2.498 98.765 -2.245 97.696 -1.703 C 96.57 -1.132 94.676 -0.165 91.219 1.571 L 92.638 4.396 L 94.056 7.221 C 97.528 5.477 99.437 4.503 100.556 3.935 C 101.731 3.339 101.915 3.256 102.082 3.191 L 100.937 0.244 Z M 92.638 4.396 L 91.219 1.571 C 84.285 5.053 71.179 11.569 62.976 15.314 L 64.288 18.189 L 65.601 21.065 C 73.927 17.265 87.134 10.696 94.056 7.221 L 92.638 4.396 Z M 64.288 18.189 L 62.976 15.314 C 52.566 20.065 44.228 20.43 35.357 20.291 L 35.308 23.451 L 35.258 26.612 C 44.494 26.757 53.935 26.39 65.601 21.065 L 64.288 18.189 Z M 35.308 23.451 L 35.357 20.291 C 27.306 20.164 20.072 17.496 15.132 15.715 L 14.06 18.688 L 12.987 21.662 C 17.827 23.407 26.005 26.467 35.258 26.612 L 35.308 23.451 Z M 14.06 18.688 L 15.506 15.878 C 11.283 13.704 7.673 12.036 5.264 10.675 L 3.709 13.427 L 2.154 16.179 C 4.667 17.599 8.791 19.532 12.613 21.499 L 14.06 18.688 Z M 3.709 13.427 L 5.337 10.717 C 4.888 10.448 4.559 10.231 4.154 9.969 C 3.748 9.706 3.301 9.422 2.711 9.09 L 1.16 11.845 L -0.39 14.599 C 0.035 14.839 0.358 15.043 0.721 15.278 C 1.084 15.512 1.521 15.8 2.082 16.137 L 3.709 13.427 Z" fill="currentColor" fill-rule="nonzero"></path></g>
</svg>