<?xml version="1.0" encoding="UTF-8"?>
<svg id="Calque_2" data-name="Calque 2" xmlns="http://www.w3.org/2000/svg" viewBox="0 0 2375.71 1222.7">
  <g id="Calque_1-2" data-name="Calque 1">
    <g>
      <path d="M1018.79,1140.41c0,3.52,4.32,12.44,2.03,14.72-3.58,3.56-10.52,6.2-15.88,8.11-17.76,6.35-34.52,17.12-53.88,19.11-15.64,1.61-35.25-6.45-50.46-8.89-2.31-1.65-3.66-7.91-4.12-12.43l-25.08,9.7-53.31-11.64,4.15-36.38,17.85-9.54c1.75-16.05,4.61-34.64,3.64-51.22-.58-10,.35-17.14.11-26.16l-.97-37.11c-.1-3.84-3.6-9.13-6.27-11.06l1.48,12.67c-5.89.07-14.99.39-18.88-1.82-10.82-6.12-13.03-20.39-10.35-30.58-11.86-14.25-12.65-35.99-24.77-60.47-5.05-10.2-8.68-19.26-2.92-30.54,7.31-14.31,14.82-42.1,13.3-57.37-3.12-31.38,17.93-27.1,21.2-46.06,19.33-11.81,48.83-8.4,53.52-12.79,1.2-1.12,1.28-6.91-.35-7.1l-7.78-.94c-3.98-.48-10.69-1.34-13.91-2.84-3.34-1.55-5.4-9.39-5.38-13.79l.27-69.58c.01-3.39,2.75-10.26,5.08-12.36s9.02-3.63,12.57-3.58l24.13.36c2.48-5.45,5.41-8.66,9.11-12.23l4.14-15.49c11.38-5.48,24.64-6.16,36.16-.85l4.86,15.61,7.12,13.31,30.33,4.56c6.9,1.04,12.03,5.12,11.78,11.99l-.1,75.94c-.18,2.77-4.43,10.24-7.77,10.27l-17.46.17.68,10.41,52.72,6.56,2.45,18.97c9.02,1.95,15.84,8.82,18.15,17.19,4.5,16.27-1.1,27.37-7.54,41.24-4.93,10.61-6.05,24.89-8.83,37.41-2.56,11.52,7.08,34.47,13.87,43.8,6.81,9.37,11.65,17.62,7.3,30.86,13.7,9.2,16.2,26.71,8.43,40.73l-11.37-1.08,1.08,12.61c-7.57,2.06-18.44,2.78-24.1-1.89-14.01-11.57-5.75-30.71-15.34-34.34-2.17,8.59-2.53,12.05-12.28,13.83l2.21,23.67c.59,6.28-.33,18.19,2.41,23.2,6.2,11.37,7.97,19.93,3.49,32.47-3.8,10.63-1.48,24.31-.07,35.92l1.01,8.27c.2,1.67,4.55,2.53,6.42,2.76,12.4,1.54,16.08,12.11,16.1,23.71ZM933.63,640.93l-2.13-15.23c-10.4-4.83-21.24-5.12-31.78.14l-2.76,14.14,36.67.96ZM941.08,647.76l-50.1-3.08-1.82,4.2c-.51,1.18,34.71,2.91,51.92-1.12ZM961.18,751.29l-.15-24.37c-9.75-5.63-12.93-14.24-12.62-23.88.29-8.94,3.74-17.12,12.91-21.52l-.05-23.79-43.54-3.71-68.03,1.28c-2.12,5.2-4.09,11.15-4.07,16.51l.22,71.22c0,2.8,7.94,6.05,10.94,6.16l47.55,1.76,56.84.34ZM982.02,746.89l1.05-33.23-.6-51.5-16.86-4.42.81,24.71c9.91,2.99,13.39,10.29,13.81,19.27.53,11.41-3.62,21.4-14.38,26.17l-.1,21.84c3.68,1.32,14.41.78,16.28-2.84ZM963.35,721.94c-8.02-12.84-7.45-26.79,2.84-35.87-9.85-.93-12.6,7.54-13.06,15.64-.51,9.15.75,18.26,10.22,20.23ZM973.39,692.23c-.99-1.26-5.46-3.95-6.4-2.67l-3.26,4.49c-4.93,6.78-3.31,22.92,5.43,24.71,9.18-3.32,10.09-19.1,4.23-26.53ZM960.15,756.46l-50.42-1.27-30.41-1.66c-2.1-.11-5.85,1.31-6.45,2.92s2.09,7.09,4.23,7.25l37.99,2.87c15.43,1.17,33.15,4.24,45.06-10.11ZM855.25,772.59l2.2-4.12c.33-.62-3.46-1.38-4.19-1.23-6.4,1.28-11.75,9.92-11.6,15.94,7.2,1.91,10.66-5.12,13.58-10.59ZM926.18,773.64l-20.88-3.52-17.2-.84c-10.06-.49-18.1-2.57-26.74,1.94l41.42,1.46c8.04.28,15.06,2.04,23.41.96ZM921.17,794.2c10.19-11.12,17.17-16.29,27.7-24.26-16.22-.64-26.21,9.29-36.45,18.81l8.74,5.45ZM983.71,772.86l-18.49-3.12c-3.65-.62-9.96,1.92-13.67,6.07l32.16-2.96ZM990.14,791.45c4.83-3.46,14.11-3.72,21.81-4.03l-.12-13.4-56.66,5.73-.16,105.86c4.97-6.85,11.89-13.99,14.86-21.5,13.82-34.99-.4-57.82,20.28-72.66ZM833.78,784l5.98-7.97-21.55-1.04-2.11,20.57c5.23-4.68,9.79-7.71,17.68-11.56ZM907.37,788.2l10.71-10.04-59.39-3.04-2.54,6.18c-.38.93,1.54,2.78,2.37,2.22l3.17-2.14,4.57-2.19c.91-.44.49,3.38.41,4.27l40.69,4.74ZM932.56,906.55l17.51-15.71.22-110.55c-10.18-3.22-20.96,8.6-26.95,19.11l3.09,48.16.89,18.47c.58,12.06,6.85,20.12,5.24,40.51ZM848.4,847.69c11.02,2.15,20.84,2.83,29.69-1.91,12.93-6.91,10.12-60.11,38.07-46.82-6.24-10.05-18.35-8.83-28.63-9.47-20.52-1.27-42.41-3.88-61.6,2.19-12.57,13.22-16.71,31.84-16.72,49.89l24.34,5.42,4.1-14.6c3.06-.38,10.35-.07,13.73.53l-2.98,14.77ZM796.6,869.29l10.83-48.22c3.28-10.2,5.44-20.61,4.55-32.17-15.54,7.11-16.59,25.8-10.34,38.38-2.71,6.05-5.09,11.94-6.39,17.81l-5.53,24.91,6.88-.7ZM997.18,830.16c-1.53-16.39.69-26.53,11.98-37.28-9.15-4.43-18.46.25-23.12,9.47-4.33,8.55-5.46,17.04-4.62,26.99l15.76.83ZM1029.6,836.15c6.19-13.19,5.8-30.95-6.79-39.53-7.17-4.89-17.33,3.1-19.51,10.86-2.81,10.01-3.04,20.86-.41,31.23,1.36,5.35,9.03,9.19,13.81,8.96,5.78-.27,9.61-4.53,12.89-11.52ZM879.17,917.8c.46,5.32-2.48,15.89-8.24,16.58-21.47,2.59-39.81-.3-61.71-3.84l7.48,8.84c26.79,4.79,52.31,8.18,79.27,5.1,9.11-1,18.15-2.76,24.45-7.9-8.22.04-19.32.36-23.72-5.96l-.73-52.86,27.64-4.09-1.2-29.84-3.23-38.89c-7.97,3.96-12.16,3.49-20.38,4.01l-7.96,20.14c-2.85,7.22-5.43,17.05-12.73,20.9-8.84,4.66-20.21,3.3-29.51,2.21-.34,5.53-1.48,13.43-5.67,16.7-2.68,2.08-10.06-1.85-10.73-4.7-.87-3.72-.96-7.5-.71-13.38l-19.5-3.13-1.7,27.5c21.86-2.6,65.37,2.24,66.1,10.73l2.78,31.89ZM983.6,878.61l8.14-44.42-9.76-1.38-10.45,45.8c1.28,1.68,9.41,2.01,12.06,0ZM1017.19,879.78l5.32-27.87c-7.42.18-14.5-.4-18.9-4.82-3.05-3.07-5.3-8.96-7.64-14.19l-6.78,41.02c5.18-2.73,11.97-5.66,16.28-3.46,3.07,1.57,6.99,5.27,11.71,9.32ZM843.83,854.04l2.16-18.29-4.08-.5-5.43,15.15c-.51,1.41-.36,4.71-.07,5.98s7.25-.98,7.41-2.34ZM806.17,875.42l2.16-31.36c-6.37,14.95-8.74,26.96-10.71,42.17l8.55-10.81ZM836.23,861.18c-1.1.27,1.87,5,2.86,4.5l3.52-1.76c.99-.5.83-4.49-.23-4.23l-6.15,1.49ZM823.66,994.92c-4.6-12.28-3.45-22.2-2.6-29.76-6.22-6.66-10.04-13.44-8.65-22.64l-11.72-21.62c-8.37-15.45-10.5-31.54-4.66-49.27-8.4-.3-12.82,6.29-13.02,14.16-.2,8.22,1.86,15.58,6.94,22.17,1.48,1.92,2.37,6.79,3.11,8.99l12.49,37.4c1.22,3.65,4.47,7.26,8.4,10.27-5.06,10.96-1.41,26.46,9.71,30.29ZM1006.51,914.06c9.47-10.55,10.48-23.92,3.74-34.87-1.53-2.49-6.82-6.03-9.49-5.82-2.67.2-7.26,3.51-9.26,6.14-10.27,13.58-5.52,36.09,5.61,37.92,2.21.36,7.81-1.6,9.4-3.36ZM909.18,898.05c7.14-.82,12.3-1.18,17.46-3.7,4.05-1.98,1.05-15.92-3.16-15.5l-22.78,2.25,8.48,16.95ZM858.27,898.65c4.97-4.83,8.05-9.52,10.13-14.78-21.25-5.09-39.38-5.17-60.18-4.25l-5.65,5.97c-1.22,1.29.79,7.04,2.83,7.26l52.88,5.8ZM932.09,921.57l20.23-17.25c7.7-6.56,13.3-13.89,13.29-24.36l-27.38,26.54c-3.94,3.82-6.3,9.28-6.14,15.08ZM1026.38,927.27l-9.5-23.86c-2.27,10.88-11.55,20.97-21.62,16.85-14.27-5.84-17.27-22.36-11.31-36.68l-15.26.54c-2.62,11.54-1.97,23.56,5.34,31.54,9.78-.27,15.32,1.93,19.39,10.7l12.18,26.23c3.39-14.19,6.05-23.07,20.78-25.31ZM805.5,898.07l1.03,24.85c15.66,9.11,44.65,9.45,65.54,7.07,3.31-15.01,2.78-27.18-.67-43.11-2.32,4.52-4.05,10.01-4.12,14.53l-.37,25.5-3.14.51-.56-26.26c-20.07,2.25-37.47-.3-57.7-3.08ZM798.69,904.09c3.41-5.29,1.63-8.69-.56-11.91l.56,11.91ZM926.05,925.78c3.14-8.24,2.19-17.82,1.83-25.43l-12.95,1.96c-3.78.57-9.75-3.15-13.36-6.76l-.85,32.25c3.04,6.82,21.97,6.81,25.33-2.02ZM991.74,962.91l-19.09-40.19-10.01-21.37c-5.11,1.54-8.93,7.73-8.91,14.21l.23,56.25,37.78-8.9ZM828.05,960.84l90.49,7.91,31.45,3.09-.08-54.83c0-4.55-4-3.87-4.51.32.72,3.81-.28,5.4-3.08,1.28l-11.79,9.65c-5.47,11.95-14.97,19-28.16,20.46-28.18,3.12-55.97.79-85.52-3.79-1.5,1.8-.9,8.99.99,11.37,1.73,2.19,6.69,4.25,10.2,4.55ZM1015.74,977.37c-2.41-2.58-6.2-6.76-7.61-9.75l-22.35-47.47-9.26,2.12,20.46,42.29c3.85,7.96,8.67,13.59,18.76,12.8ZM1035.22,966.52c5.03-10.27,4.2-21.52-2.2-30.26-3.06-4.19-13.63-4.3-16.79-.38-10.85,13.44-5.82,37.3,6.57,38.55,4.01.41,10.12-3.21,12.42-7.92ZM993.93,966.56l-46.39,10.17-.58,14.99-2.69.54-2.91-17.22-107.43-9.62.41,17.93,112.51,12.04,45.83-11.03c3.47-4.25,3.89-14.02,1.24-17.81ZM1035.48,1008.46c-5.5-11.16-9.63-24.23,1.69-29.85,3.98-1.96,9.35,9.21,10.23,14.18,5.41-8.62,1.12-22.79-6.9-26.44-4.32,6.09-10.74,11.65-17.65,13.86l.91,13.74c.45,6.84,4.96,16.11,11.73,14.5ZM829.72,970.36c-.15-1.51-4.17-4.2-4.54-2.87l-1.21,4.34c-.56,8.84,1.11,18.98,8.35,24.59l-2.61-26.06ZM1024.58,1009.42c-3.89-10.26-4.98-15.85-6.1-25.34l-10.86-2.8c1.62,16.84,5.36,28.78,16.96,28.14ZM1039.99,997.96c3.67-5.42,2.26-11.49-2.84-16.73l-3.36,9.55c-.79,2.24,3.42,7.81,6.2,7.18ZM858.83,1037.77l-1.79-45.92-11.98-2.21,3.51,39.88c.21,2.39.43,7.91,2.57,7.99l7.69.26ZM874.2,1024.93l-1.24-32.14-12.46-.96,1.98,47.64,13.08.93-1.36-15.47ZM987.27,1034.33l-3.99-43.29-31.17,7.43,2.51,51.45c17.35-.17,14.14-19.14,32.66-15.59ZM906.36,1025.13l-1.83-29.54-27.93-2.64,1.86,39.98c.11,2.32,2.1,6.8,4.06,6.91,9.81.55,6.92-12.74,23.84-14.7ZM919.11,1069.49c-1.44-9.39-.35-15.98-.57-24.28l-1.21-47.09-8.67-1.86,2,32.2c7.73,13.41,4.91,21.91,2.25,36.35-2.31,12.52,2.51,28.51,3.91,41.06,2.57-11.56,4.11-24.5,2.29-36.38ZM934.41,1048.4l-3.15-49.4-10.14-.18,2.61,46.95,10.67,2.62ZM950.8,1050.4l-2.91-50.87-12.14.13,2.65,49.12,12.41,1.61ZM907.41,1063.35c6.11-8.71,6.76-28.57-3.85-32.29-11.54-.93-16.21,17.93-12.21,26.75,1.76,3.87,3.75,6.95,5.87,8.18,2.11,1.22,8.76-.59,10.19-2.63ZM989.81,1071.74c6.81-16.31,1.11-34.87-8.96-34.06-11.13.89-15.62,23.28-8.01,35.32,2.71,4.3,14.97,3.52,16.97-1.26ZM885.69,1044.29c-11.76.75-18.34.28-27.54-.78l-11.66-1.35.35,14.84,40.24,4.77-1.38-17.48ZM966.02,1071.48l-1.74-19.22-12.79,3.02-30.56-4.3,2.28,17.74,14.28,1.93c9.24,1.25,20.95,1.79,28.52.83ZM852.92,1118.98l6.64-54.91c-3.21-.92-8.16-1.46-10.31-.94l-5.09,52.79c1.07,1.53,6.76,3.28,8.75,3.07ZM873.11,1090.51l1.99-24.28-12.57-1.59-5.32,55.91,12.63,1.57,3.26-31.61ZM907.14,1070.06c-11.4,5.01-15.35-8.47-28.39-4.17l-5.08,55.2,39.08-10.24-5.61-40.79ZM930.56,1130.62l2.43-24.9,2.6-30.95-11.08-1.03-4.27,55.76c2.61,1.07,8.65,1.87,10.33,1.12ZM947.76,1134.03l3.86-57.14-12.13-1.49-4.62,57.22,12.89,1.4ZM988.81,1079.4c-15.01,4.73-21.18-8.37-32.88-1.75l-3.85,57.1,40.75-13.84-4.02-41.51ZM899.27,1148.81c-2.07-26.13,20.27-16.64,17.25-28.74l-40.47,11.74.14-3.43,37.25-11.48c1.07-.33,3.53-3.53,4.05-4.31.35-.52-1.93-.73-2.44-.37l-3.71,2.69-41.28,11.11c-12.87,3.46-32.04-12.51-41.73-2.33-4.12,4.33-4.83,18.12-.79,26.02l42.59,8.92,29.13-9.82ZM903.74,1162.21l47.34,9.56,62.8-23.44c.62-8.59.12-18.77-3.89-24.2-1.33-1.81-7.22-4.13-9.41-4.09s-5.26,4.09-7.42,4.8l-42.3,13.93c-8.37,2.76-24.19-3.11-32.35-5.08l-5.69-3.58c-4.42-2.78-13.85,14.33-9.08,32.11ZM903.11,1169.59c17.02,3.44,34.06,10.04,50.52,7.8,17.56-2.39,33.53-11.89,49.79-17.61,5.81-2.05,11.56-3.52,14.92-8.95-22.83,6.58-44.03,20.23-68.47,22.76-14.65,1.52-30.64-5.18-44.99-6.93-3.2-3.89-4.12-1.45-1.77,2.93ZM898.08,1155.83c-11.79-3.47-18.84,7.97-28.43,6.12l-43.55-8.38c-3.04-2.84-4.76-2.02-2.69,2.53l46.95,10.33,27.72-10.61Z"/>
      <path d="M386.73,541.53l-21.09,37.59,11.73-5.35c19.69-5.62,34.37-15.08,51.62-28.69-4.33,16.85-32.84,25.37-52.4,33.77-20.92,8.99-36.68,25.82-49.45,44.29-31.43,45.48-35.69,79-33.22,134.61l4,90.08,3.91,56.93,43.11,7.5,24.52,3.35c-10.11,3.54-20.7,3.34-30.14.59-31.86-9.29-63.65-9.24-95.74-.69-14.26,3.8-28.88,6.05-43.39.52,4.97-2.79,10.89-1.43,15.95-.55l46.96-8.23,2.71-21.42,1.31-21.93,2.23-72.08,1.12-52.2c1.35-62.74,9.12-148.24-40.56-188.44-24.62-19.92-68.45-14.75-80.89-48.06,14.97,15.49,28.74,25.17,48.33,29.08,19.52,3.89,34.28,13.51,49.1,27.98l-24.16-54.69c-11.21-25.38-14.65-53.3-45.71-72.56-18.16-11.26-48.27-33.38-44.34-51.86,10.86,23.94,25.69,34.79,47.64,48.62,13.53,8.52,23.04,19.98,29.36,34.96,1.54-32.07-4.26-63.68,11.56-92.73-11.4,62.24-3.85,108.79,29.69,160.75.32-32.65,23.08-51.99,15.56-89.19,6.76,11.27,6.95,24.63,2.51,37.15l-10.28,29.01c-6.36,17.96-2.47,31.42,4.08,47.64l20.7,51.25c7.1-32.03,19.56-58.52,31.92-87.26,17.48-40.65,10.33-109.49-14.18-148.6-17.75-28.32-35.93-56.63-29.92-89.01l3.61,22.11c3.95,24.18,16.05,45.74,30.82,64.66-4.92-23.46-2.94-44.99,4.03-67.21,6.89-21.94,8.64-43.24,9.41-66.07,6.89,21.69,1.78,44.1-4.92,64.68-9.69,29.78-8.95,57.03,1.12,87.12,13.78,41.16,20.72,86.07,5.6,128.13-10.22,28.42-25.48,53.73-31.2,84.03-1.16,6.13-2.57,12.32-5.74,18.4-12.4-29.4-21.09-56.93-36.16-83.46-13.15-23.14-24.37-45.15-31.55-70.6,1.64,25.03,13.72,46.25,23.43,68.68,6.64,15.35,15.26,29.31,20.8,45.25,12.05,34.65,17.39,70.93,16.22,107.77l-2.38,74.62-1.75,59.99-1.09,39.85-1.84,22.11-2.7,22.92,31.31-2.23-5.05-76.38-4.17-80.79c-1.15-22.28.85-44.73,6.18-66.61,5.05-20.74,15.87-38.4,26.43-58.21-11.09,10.42-18.38,24-28.2,38.96-2.12-65.12,26.39-131.14,58.93-185.73l-18.69,18.37c.06-28.22-1.21-50.39-4.14-75.48-2.26-19.33-.14-42.57,13.8-58.26-7.08,22.96-13.91,43.79-9.42,67.53,3.65,19.32,3.67,38.21,2.67,58.72l33.39-40.9c14.82-18.16,28.57-36.67,37.06-58.66,14.4-37.29,17.97-75.18,17.39-115.46,9.09,34.48-.36,80.02-12.29,116.87,10.08-9.24,19.08-18.41,27.52-29.22,8.54-10.93,12.87-24.04,19.63-37.78,1.67,19.51-16.2,42.09-31.51,58.09l-16.65,17.4-24.79,41.13c-17.96,25.24-38.06,46.87-50.73,76.26,20.04-20.15,43.35-28.54,68.16-36.9,17.57-5.91,23.57-26.17,36.61-36.93-4.53,15.34-16.91,25.94-26.39,36.62,24.2-1.21,45.14-10.07,64.46-25.3-8.26,21.59-51.38,27.71-79.54,32.72-14.26,2.54-26.03,8.56-38.3,15.71-21.83,12.73-35.63,32.44-43.98,56.42-10.37,29.78-17.94,59.2-19.8,91.78,13.57-21.04,28.56-39.85,48.48-55.44,17.32-13.55,29.12-32.47,37.15-53.31.39-1.01,5.26.78,4.64,1.9Z"/>
      <path d="M1187.75,797.6l195.76-.25,24.39-.28,47-.22,46.83-.94.1,3.73-153.29,1.14-169.05,1.44c26.73,3.4,101.35,13.99,90.74,32.31-4.49,7.75-15.74,12.85-24.65,15.23l-78.61,21.04c-9.89,2.65-19.21,6.79-24.12,17.17,20.83,7.28,41,10.58,62.06,12.87l98.93,10.77c35.27,3.84,69.29,8.88,103.08,18.93l55.53,23.14c6.04,2.52,16.35-2.59,23.1-4.24,60.93-14.87,121-24.51,183.33-32.45,41.1-5.23,199.4-24.01,196.8-50-.3-2.96-3.9-8.83-6.69-10.25l-42.73-21.69c-2.55-1.3-6.1-5.98-6.72-8.58-3.81-16.09,45.96-22.31,69.14-27.99l-49.24,1.24-273.83.08v-3.87s275.88-.75,275.88-.75l90.63-1.27,450.83-.11,2.72,3.25c.43.52-2.87.73-4.34.73l-445.31.29c-27.76.02-52.51,6.42-79.26,10.88l-28.05,9.44c-1.82.61-4.52,4.92-4.64,6.73-.14,2.16,2.4,6.85,4.52,7.85l29.89,14.15c7.22,3.42,15.27,7.79,19.32,14.44,4.63,7.61-.63,16.81-8.13,20.32-17.93,8.39-36.07,14.96-56,18.06l-160.76,25.04c-54.43,8.48-106.75,16.12-159.97,29.79-5.85,1.5-15.03,6.96-20.6,4.42l-41.31-18.78c-24.49-11.13-51.32-15.99-78.51-19.23l-137.53-16.39-57.59-10.45c-2.93-.53-7.39-5.17-7.93-7.78-2.46-11.97,28.29-19.85,46.21-25.1l74.8-21.89c2.63-.77,5.84-6.74,5.57-8.99-1.19-9.78-46.9-18.84-69.17-21.81l-43.37-5.78c-38.5-5.13-76.39,3.69-115.37-4.05l149.62-1.34Z"/>
      <path d="M1532.3,776.31l-3.6-2.1-1.94,29.88-1.8-26.42c-.06-.85.24-3.86-.49-3.67l-4.28,1.1c2.53,20.89,2.15,38.3-1.21,57.01-4.98-20.75,3.77-40.13-4.33-60.41l-.52,135.69,3.06,11.04c-2.39-1.02-5.79-4.39-6.81-6.5l-8.12-16.79,5.93,25.04-13.75-11.14,5.5,14.15-21.31-22.94c9.03.27,15.07,4.51,23.59,9.84l-9.1-28.26c7.51,4.48,11.61,10.91,16.75,18.49l-.27-127.39-21.74-1.8-20.28-1.66-33.86-2.35-25.94-1.17c-10.29-.47-17.34-3.03-23.84-10.26l-32.4-36.03,24.48-23.82c8.1-7.88,18.59-17.06,29.25-20.86l82.6,8.02.48-32.22,21.42-2.13.71-27.85,18.85-4.16c4.46-.98,14.36,2.2,17.98,5.2l1.82,23.27,25.91-2.3,70.43-5.41,48.17,42.96-34.27,39.28c-3.83,4.39-9.64,6.67-15.37,6.98l-32.4,1.77-21.78,1.86-29.2,2.12-.61,33.57c-.07,3.99-7.57,9.33-10.58,11.8l-.14,41.56.07,14.59.32,61.89c4.74-5.11,6.87-7.7,13.87-12.85l-7.38,23.15,11.72-6.74-5.64,13.69,20.05,1.58c-9.14,6.55-29.45,4.11-31.66-3.62l-7.96,6.12,2.65-17.53-9.58,19.94-15.38-2.89c-1.93-.96-.34-6.38,2.9-9.96l8.52,9.8c3.85-20.78-1.79-37.65.46-56.54,1.6-13.44.3-25.11.25-38.43l-.18-45.18ZM1532.99,645.91l-1.33-25.99-17.5,4.11v23.59s18.83-1.71,18.83-1.71ZM1543.92,647.69l.57-18.52c.11-3.62-4.59-8.16-8.88-7.77l.39,24.41,3.41-.05-1.65-16.97,1.97-.82,4.18,19.73ZM1496.5,655.66l21.05-2.41,32.28-2.07,21.85-1.83,26.32-2.69-32.12.68-24.11,1.88-26.03,2.03-24,3.83c-.12,8-.31,10.88,2.25,18.88l2.51-18.32ZM1586.58,727.13l21.19-1.88,29.9-1.62c8.54-.46,16.03-2.51,20.18-9.27-6.34.5-10.02.91-16.83-1.61l21.07-2.32,26.9-30.59-36.92-33.66-83.1,6.67-61.51,4.54c-2.71.2-7.86,1.55-7.94,3.74l-.33,9.89,20.3.35c-7.29,2.89-12.18,3.62-19.9,5.05l1.93,7.75,58.47,6.06.3,39.34,26.28-2.43ZM1494.29,683.52c2.63-1.83,1.41-8.65-2.03-9.36-.74,2.07.37,7.87,2.03,9.36ZM1447.71,682.64l-13.96-1.4c-11.31-1.13-21.69-1.91-32.28-.63l22.66,2.68,22.54.6,1.04-1.26ZM1547.01,772.11l.29-20.43-15.6-.18.02-3.24,16.29-.25.1-32.59-17.01-2.95,17.06-1.85-1.05-12.26-27.33-2.27-66.91-7.28-23.06-1.52-25.77-2.46c-6.26-.6-10.5-.18-15.12,4.52l18.24,3.67-3.71,2.28-18.02-2.25-28.81,27.26,25.3,27.16,22.19,1.25-18.61,1.53c3.48,8.31,10.68,11.23,20.27,11.65l27.95,1.23,31.88,2.27,22.21,1.72,59.2,4.99ZM1448.85,683.39l-1.1,1.55,103.79,10.87.59,16.02,3.4.02.16-18.29-78.11-8.15-28.73-2.01ZM1552.87,746.75c6.43-11.2,5.04-21.72.18-32.74-1.94,11.82-1.9,21.59-.18,32.74ZM1552.33,770.27c5.55-7.82,5.32-15.01.36-22.08l-.36,22.08ZM1545.66,775.5c-1.4,2.16-3.79,7.77-3.82,10.52l-.33,33.81-1.72-1.02-.22-43.03-3.82-.06v108.22c.01,6.45,1.76,13.73,2.84,19.49,5.11-6.73,7.09-11.19,7.09-17.49l-.03-110.43Z"/>
      <path d="M1096.29,1173.23l-137.48,49.47-2.04-3.87,121.8-44.15,181.22-64.77c54.4-19.44,106.74-39.04,159.25-62.6,16.54-7.42,33.3-15.75,45.85-28.17,17.86-17.66,35.95-30.42,60.11-38.53,40.65-13.64,81.54-21.79,124.22-29.41l149.23-26.66,59.8-16.18c16.91-4.57,33.18-12.45,46.59-23.16,8.4-6.7,6.71-19.4-1.32-25.18-7.55-5.43-16.03-10-24.85-13.18l-49.04-17.63.31-3.38,41.29,14.4c20.54,7.17,43.75,16.79,43.28,34.58-.86,32.72-125.18,56.98-165.82,63.89l-51.23,8.71-88.29,15.72c-38.33,6.82-75.07,16.7-110.07,34.19-18.25,9.12-34.24,36.29-76.63,53.37l-122.5,49.36-203.64,73.17Z"/>
      <path d="M1038.91,1035.09c-8.99,1.3-17.7,5.15-26.23.42l144.72-22.16,101.85-17.92c16.06-2.83,50.77-14.5,53.1-24.95.68-3.03-3.31-9.38-6.21-10.52l-17.61-6.92-80.73-15.43-68.21-9.6c-19.26-2.71-37.44-8.67-54.27-17.49-10.27-5.38-17.17-18.53-8.58-28.07,16.99-18.87,71.51-30.11,102.54-36.96,14.59-3.22,27-7.05,40.57-14.21-1.66-1.97-5.52-5.46-7.64-6.07-37.39-10.81-73.61-15.82-112.83-20.35l27.94-.77c31.24,4.19,61.19,9.42,91.11,18.45l6.26,5.16c1.16.96-3.51,11.04-3.89,11.01l-4.67-.38-62.39,17.46c-27.02,6.21-85.21,20.51-74.81,41.23,11.01,21.94,71.34,27.94,102.88,32.71l79.84,12.07c19.48,2.95,52.21,12.22,55.4,25.8,2.66,11.32-21.97,23.12-40.04,27.73-35.02,8.92-69.28,15.3-105.35,20.52l-132.75,19.23Z"/>
      <path d="M2172.03,769.95c-18.36.38-36.82-2.88-55.84-6.59l-100.22-19.55-48.91-9.24c-37.7-7.12-78.97,9.85-115.32,19.09-30.4,7.73-58.94,17.65-90.99,21l142.58-39.08c18.56-5.09,35.49-6.18,54.74-5.88l79.71,14.01c26.29-.08,52.3-13.14,77.26-20.64l44.86-13.49c30.11-9.06,59.92-14.6,91.41-16.78l24.66.05,55.75,4.37c11.94.94,23.2.48,33.64,3.84-20.92,2.25-38.54-1.47-57.53-2.98l-20.33-1.62-47.18.09c-30.56,3.11-59.41,10.35-88.49,19.17l-41.68,12.64-63.26,19.16,125.15,22.44Z"/>
      <path d="M792.03,766.5c-19.13-1.3-36.3-6.49-55.23-9.83l-115.08-30.14c-24.87-6.51-50.87-3.35-75.46,2.17l-95.56,21.45c40.15,14.65,80.44,20.59,122.17,30.22-51.86-3.79-100.47-19.51-149.9-35.62l-115.73-42.93,1.59-2.23,127.61,45.52c13.87,4.95,33.3-1.93,47.13-5.24l60.06-14.35c63.99-15.28,100.66,4.41,159.32,18.94l89.08,22.05Z"/>
      <polygon points="790.05 801.65 615.89 802.17 577.5 802.1 307.62 801.73 307.6 797.83 577.53 798.02 692.92 798.77 786.76 799.77 790.05 801.65"/>
      <path d="M738.78,1083.94l-162.43,26.8c-45.45,4.67-88.42,19.11-134.59,17.92l376.49-61.86-.49,4.76-78.98,12.38Z"/>
      <path d="M2196.36,140.16c-14.13,29.21-51.48,36.32-81.7,20.45-23.22-12.2-33.9-40.26-28.28-65.05,5.53-24.41,26.66-44.9,54.17-45.71-15.02,13.37-22.2,29.23-20.3,48.1,1.73,17.17,12.91,31.17,29.12,40.52,13.77,7.95,28.55,6.91,46.99,1.69ZM2117.18,93.73c-.06-14.08,2.81-25.68,10.99-38.53-22.92,8.09-38.53,27.02-39.87,51.48-1.09,19.85,10.2,40.32,28.14,50.45,24.04,13.58,51.54,10.62,71.68-10.82-34.26,8.22-70.79-16.31-70.94-52.57Z"/>
      <polygon points="254.74 801.62 0 801.79 3.78 797.78 250.98 797.78 254.74 801.62"/>
      <path d="M147.55,653.98c-19.99-5.6-40.58-11.77-61.96-11.56-27.19.26-53.72,5.42-79.83,7.06l-.08-2.92,54.85-5.87c12.03-1.29,28.59-2.95,41.14-.39,54.34,11.09,107.25,25.16,158.55,45.27l-112.67-31.59Z"/>
      <path d="M2219.28,35.66l-16.14-2.96,15.05-3.57,4.46-15.79c.94,3.33,2.79,10.69,4.97,13.39,2.42,3,9.91,4.36,14.48,6.16-4.62,1.14-11.58,1.93-13.59,4.45-2.54,3.18-4.14,9.07-6.08,15.03l-3.14-16.72Z"/>
      <path d="M263.19,435.24c-11.63-1.05-18.81-22.86-9.75-30.72,10.5,2.76,17.67,21.1,9.75,30.72ZM259.76,430.96c4.86-8.02,2.45-16.98-6.55-20.2.26,7.82,2.35,13.92,6.55,20.2Z"/>
      <path d="M212.86,376.97c-5.8,1.46-12.69-2.88-16.09-7.38-4.16-5.51-5.23-12.67-2.82-20.59,11.62,3.63,19.17,13.12,18.91,27.96ZM208.1,371.56c-.21-8.03-3.11-12.67-8.95-16.72-1.45,7.08.06,15.8,8.95,16.72Z"/>
      <path d="M350.44,354.79c-5.71-2.28-4.19-12.1.12-18.05,3.82-5.27,8.57-9.62,14.73-9.4,3.1,11.91-.93,23.79-14.85,27.45ZM350.3,348.17c11.76-.33,11.41-7.94,10.31-14.98-5.11,2.91-9.54,9.51-10.31,14.98Z"/>
      <path d="M496.44,423.35c4.45,11.96-6.71,26.56-18.81,24.11-4.95-9.73,6.51-24.89,18.81-24.11ZM482.52,444.66c7.19-4.59,9.93-10.79,10.57-17.28-7.89,3.61-13.28,8.98-10.57,17.28Z"/>
      <path d="M267.17,278.69c-12.42-1.06-22.33-15.27-17.57-29.91,12.16,3.59,19.79,13.44,17.57,29.91ZM262.3,274.47c2.92-9.62-2.44-16.5-10.21-19.16.74,8.11,3.73,14.67,10.21,19.16Z"/>
      <path d="M297.74,435c-.42,9.21-2.64,15.65-6.05,18.04-4.42,3.1-13.26,4.31-15.92,1.95-.24-13.27,12.08-22.94,21.96-19.99ZM293.4,440.21c-6.73-1.42-14.47,4.32-11.08,12.1,4.73-.68,9.99-6.77,11.08-12.1Z"/>
      <path d="M178.64,519.98c-10.63-6.37-16.3-18.46-12.31-32.95,5.25,2.55,11.01,6.62,13.31,10.41,3.62,5.97,3.04,13.53-1,22.54ZM176.49,513.74c3.42-7.66,1.62-16.2-6.73-20.25-1.43,8.04.61,14.89,6.73,20.25Z"/>
      <path d="M442.55,535.62l-10.01,4.59c-1.34-13.12,6.01-26.64,21.03-28.28,2.19,9.93-1.18,19.19-11.01,23.69ZM436.55,532.93c9.26-1.03,14.07-8.27,12.24-14.97-6.8.32-12.98,8.75-12.24,14.97Z"/>
      <path d="M497,460.82l13.81,11.53c-11.83,7.82-27.94,3.31-32.02-11.07,4-1.87,14.85-3.27,18.21-.46ZM503.66,471.78c-4.42-7.2-11.75-10.41-20.2-7.32,4.99,5.85,12.18,8.75,20.2,7.32Z"/>
      <path d="M133.83,373.95c-13.08-6.7-13.76-22.87-6.25-35.17,10.48,8.88,14.26,22.74,6.25,35.17ZM131.16,368.26c5.26-5.94,4.62-16.49-3.41-20.79-2.78,6.61-1.44,14.03,3.41,20.79Z"/>
      <path d="M312.22,235.68c-13.77-4.84-18.92-16.36-16.2-30.22,7.14,1.14,12.9,4.96,15.22,10.29,2.83,6.49,2.78,13.57.98,19.94ZM309.79,229.55c1.24-6.76-2.41-15.81-9.19-19.22-4,5.89-.75,18.26,9.19,19.22Z"/>
      <path d="M491.74,338.95c-5.09,11.31-20.2,16.41-32.86,8.16,7.19-9.68,18.63-14.71,32.86-8.16ZM485.08,341.89c-8.41-4.94-15.2-2.03-20.12,4.71,7.23,1.91,14.73.75,20.12-4.71Z"/>
      <path d="M163.84,530.41c-1.13,5.21-5.58,12.93-9.95,14.79-6.52,2.78-12.74,1.94-20.39-.45,4.81-11.04,14.49-18.85,30.33-14.34ZM158.98,533.52c-7.42-2.32-15.19,1.5-19.94,8.99,7.22,1.63,15.48,1.33,19.94-8.99Z"/>
      <path d="M453.35,569.84c-7.6,7.66-27.77,5.78-31.06-6.43,6.73-8.99,26.86-4.85,31.06,6.43ZM448.52,568.81c-6.48-7.18-15.01-9.34-22.13-2.77,7,4.5,14.93,5.25,22.13,2.77Z"/>
      <path d="M131,397.56c-9.84,10.17-26.28,7.03-32.38-6.06,10.8-5.04,23.07-4.28,32.38,6.06ZM124.7,396.47c-6.66-4.23-13.26-4.96-20.08-3.55,5.14,7.1,12.67,8.99,20.08,3.55Z"/>
      <path d="M268.93,317.21c-11.53,9.11-26.03,2.6-31.86-9.02,11.69-3.93,24.84-2.76,31.86,9.02ZM263.67,316.62c-6.32-6.35-12.88-7.95-19.78-6.72,4.44,7.23,12.79,10.44,19.78,6.72Z"/>
      <path d="M347.67,250.04c-2.33,5.18-13.77,8.15-19.94,7.63-1.58-14.64,14.26-23.44,26.04-21.2l-6.1,13.57ZM347.19,240.07c-8.03,2.22-13.51,6.31-17.3,12.98,7.91,2.27,17.32-3.57,17.3-12.98Z"/>
      <path d="M419.93,307.86c-11.52,5.6-25.72-10.21-22.07-24.89,9.92,2.71,22.96,10.7,22.07,24.89ZM415.8,303.34c.53-6.4-8.45-14.03-13.77-13.09.29,9.08,6.54,16.62,13.77,13.09Z"/>
      <path d="M453.45,254.93c2.85,14.02-6.94,23.95-20.77,26.35-1.91-11.93,5.05-24.97,20.77-26.35ZM449.27,260.22c-9.41,1.32-14.25,8.53-12.42,15.84,8.65-1.66,12.81-8.74,12.42-15.84Z"/>
      <path d="M2028.11,203.74l-2.8-8.44-10.32-2.47c6.85-1.63,11.52-5.26,13.65-13.44,1.42,7.74,7.37,11.77,15.64,13.59-7.91,2.07-12.41,1.07-16.17,10.77Z"/>
      <polygon points="2235.4 226.76 2226.05 218.77 2235.18 214.89 2245.57 220.2 2235.4 226.76"/>
      <path d="M1988.09,82.34l-7.89-8.65,7.92-7.87c1.3,1.5,4.91,5.45,4.83,7.46-.09,2.35-3.36,6.77-4.87,9.06Z"/>
      <polygon points="1523.94 879.91 1523.66 846.77 1525.54 845.68 1525.82 878.83 1523.94 879.91"/>
      <path d="M2076.85,5.01c-1.62.89-8.2,3.1-7.67,1.78,1.25-3.38,2.41-5.93,3.72-6.67,1.66-.93,5.95,3.79,3.95,4.89Z"/>
      <path d="M2277.39,110.67l4.89,2.41c1.35.67.58,4.38-1.06,4.43l-4.99.14c-1.51.04-.23-7.66,1.15-6.98Z"/>
      <path d="M938.24,715.78l-1.06,34.44-3.58-10.45,1-74.59c.7-3.02,1.42-5.08,4.53-7.56l-.87,58.16Z"/>
      <path d="M924.23,661.55c-.37-.59,3.78-1.62,3.99-.97l1.28,3.91c.21.65-2.48,1.51-2.84.94l-2.42-3.88Z"/>
      <path d="M924.1,742.39c-.19-.7,4.5-1.21,4.55-.49l.26,3.98c.07,1.01-3.24,2.28-3.52,1.24l-1.29-4.73Z"/>
      <path d="M850.95,660.66c1.15-.57,6.45.88,5.61,1.65l-3.36,3.1c-1.13,1.04-3.6-4.09-2.26-4.75Z"/>
      <path d="M865.79,660.65l4.78-.99c.78-.16,1.92,2.9,1.15,3.19l-3.19,1.2c-1.13.42-3.89-3.15-2.73-3.4Z"/>
      <path d="M879.79,660.65l4.78-.99c.8-.17,1.9,2.91,1.15,3.19l-3.2,1.2c-1.13.42-3.9-3.15-2.73-3.39Z"/>
      <path d="M893.76,660.66l4.85-1.01c.77-.16,1.87,2.91,1.13,3.19l-3.21,1.21c-1.13.42-3.98-3.14-2.77-3.39Z"/>
      <path d="M907.8,742.65l4.78-.99c.78-.16,1.89,2.91,1.14,3.19l-3.2,1.2c-1.13.42-3.86-3.17-2.72-3.41Z"/>
      <path d="M923.75,726.67l4.82-1.01c.78-.16,1.9,2.92,1.15,3.2l-3.2,1.19c-1.13.42-3.97-3.13-2.78-3.38Z"/>
      <path d="M850.11,692.06c-.04-.77,3.74-.02,3.72.76l-.11,3.9c-.02.79-3.24,1.9-3.29,1.12l-.33-5.79Z"/>
      <path d="M895.27,941.65c-12.92-5.73-7.29-47.73-3.94-71.79,2.51-18.05,1.48-37.54,13.15-53.84l-8.35,48.3c-2.96,17.13-4.96,33.86-4.69,51.56l3.82,25.78Z"/>
      <path d="M1003.31,1129.36l-48.89,17.15-.67-3.55,47.57-17.22,3.78-1.38c1.08-.39-.32,4.49-1.78,5Z"/>
      <path d="M945.9,1144.75c-11.69,1.04-24.39-.75-37.12-6.91,11.97-1.5,24.15,1.54,37.12,6.91Z"/>
      <path d="M949.4,1169.18c-2.36-6.96-2.4-13.83.14-20.98,3.29,7.13,3.44,12.98-.14,20.98Z"/>
      <path d="M929.83,958.02c.23-.6,3.54,1.2,3.34,1.81l-1,3.05c-.3.9-4.37.52-4.03-.36l1.7-4.5Z"/>
      <path d="M875.85,956.53c.6-.27,4.27-.23,4.02.39l-1.73,4.28c-.37.92-2.95-.53-3.64-1.25s.44-3,1.34-3.41Z"/>
      <path d="M863.85,954.08l3.18,1.51c.9.43.16,3.53-.82,3.43l-4.15-.44c-.99-.1.91-4.92,1.8-4.5Z"/>
      <path d="M942.1,800.11c-.05-.78,3.76-.08,3.73.7l-.12,3.91c-.02.78-3.23,1.91-3.27,1.14l-.34-5.75Z"/>
      <path d="M942.1,844.08c-.04-.75,3.75-.04,3.73.74l-.11,3.91c-.02.78-3.23,1.91-3.28,1.13l-.34-5.78Z"/>
      <path d="M942.1,856.08c-.05-.78,3.75-.04,3.73.73l-.11,3.91c-.02.78-3.23,1.91-3.28,1.13l-.34-5.77Z"/>
      <path d="M942.1,868.07c-.04-.76,3.75-.03,3.73.75l-.11,3.91c-.02.78-3.24,1.9-3.28,1.12l-.33-5.78Z"/>
      <path d="M942.11,830.06c-.05-.8,3.74-.01,3.72.77l-.11,3.9c-.02.78-3.25,1.9-3.29,1.11l-.32-5.78Z"/>
      <path d="M942.11,814.03c-.04-.79,3.74.02,3.72.8l-.11,3.9c-.02.78-3.24,1.91-3.29,1.13l-.33-5.83Z"/>
      <path d="M942.1,882.07c-.05-.79,3.75-.03,3.73.75l-.11,3.91c-.02.77-3.24,1.9-3.28,1.12l-.33-5.78Z"/>
      <path d="M1006.11,778.1c-.04-.78,3.73-.06,3.72.72l-.04,3.92c0,.78-3.31,1.9-3.36,1.12l-.33-5.76Z"/>
      <path d="M995.86,780.24c.54-.36,3.69.18,3.48.8l-1.37,4.12c-.31.93-2.93-.38-3.58-1.12-.65-.74.65-3.26,1.47-3.8Z"/>
      <path d="M960.07,860.13c.27-.65,3.35.91,3.17,1.58l-.97,3.65c-.27,1.02-4.44.25-4.04-.72l1.84-4.51Z"/>
      <path d="M972.22,782.69c.61-.24,3.75-.21,3.51.39l-1.68,4.17c-.37.91-2.97-.52-3.73-1.14s.99-3.06,1.91-3.41Z"/>
      <polygon points="865.57 1133.92 830.2 1127.11 831.84 1123.39 865.82 1130.37 865.57 1133.92"/>
      <path d="M873.17,1136.62l.09,17.16-2.98.07-1.58-13.23-.39-3.25c-.08-.68,3.01-.74,4.86-.75Z"/>
      <path d="M970,959.98c.77-.81,5.5-1.68,5.16-.77l-1.46,3.91c-.45,1.21-4.6-2.2-3.7-3.15Z"/>
      <path d="M1019.46,834.68c-8.14.38-10.52-7.36-10.35-11.91.2-5.34,1.2-14.55,9.19-14.96,4.49-.23,8.55,8.95,8.98,13.35.4,4.09-3.67,13.33-7.82,13.53ZM1018.39,829.85c8.12-1.17,5.62-17.69-.7-17.48-6.44.22-7.89,18.72.7,17.48Z"/>
      <path d="M1001.1,906.1c-10.06-2.04-7.69-20.34.79-21.37,3.53-.43,6.69,6.94,6.75,10.18.06,3.29-3.06,12.1-7.54,11.19ZM1000.04,901.41c6.45-.26,6.67-11.03,1.15-11.78-2.63.69-3.66,10.54-1.15,11.78Z"/>
      <path d="M1033.49,952.94c-.3,3.88-1.93,8.69-3.96,9.98s-7.56.78-9.21-.98-3.46-7.32-3.2-9.96c.45-4.53,4.46-9.61,7.54-9.96,5.21-.6,9.37,3.95,8.83,10.92ZM1027.09,959.5c4.36-1.87,3.87-13.1-1.4-13.15-2.61-.03-5.94,5.55-5.18,7.9.69,2.14,4.66,5.55,6.58,5.25Z"/>
      <path d="M1448.45,731.36l13.34-15.65c-.65-3.48-4.63-8.46-7.45-8.32-11.71.57-12.65,5.56-19,5.41-1.86-.04-1.83-6.7-.23-7.96,7.25-5.7,19.66-8.37,28.35-2.58,3.21,2.14,6.99,7.52,7.13,10.68.2,4.52-2.84,9.92-5.99,13.57l-9.19,10.66c-1.1,1.28-4.53,1.91-6,1.84-1.47-.07-1.97-6.45-.95-7.66Z"/>
      <path d="M1447.68,746.3c1.32-1.43,9.14-1.13,9,.81l-.53,7.54c-.14,1.96-5.53,1.06-7.53-.26-1.95-1.28-2.65-6.22-.94-8.08Z"/>
      <path d="M1524.12,754.46l3.98,2.44c1.28.78-2.08,6.37-3.28,5.47l-4.72-3.55c-1.21-.91,2.75-5.13,4.02-4.36Z"/>
      <path d="M1521.67,702.37c1.26-.1,5.28-.44,5.18-.44,1.51,1.21,1.81,3.47.57,5.18-2.36,1.16-4.03,1.25-5.48.53-1.27-.63-1.71-5.15-.26-5.27Z"/>
      <path d="M1590.35,695.81c6.43-12.74,16.42-16.87,13.61-22.49-.9-1.81-5.09-4.45-7.61-4.74-7.27-.84-10.13,6.58-19.66,6.89-1.74.06-1.46-6.03-.21-7.22,7.85-7.47,23.01-10.94,32.33-3.59,6.77,5.33,5.53,14.54.3,20.7l-10.73,12.62c-.78.92-4.25,2.29-5.42,2.55-1.18.26-3.16-3.64-2.62-4.71Z"/>
      <path d="M1592.11,706.68c2.06-.5,6.87.27,8.17,1.5,1.55,1.49.15,5.87-1.54,7.79-1.42,1.61-5.99.74-7.42-.87s-1.33-7.92.8-8.43Z"/>
      <path d="M1643.66,652.19c-2.86,4.57-9.78,6.75-15.24.24l15.24-.24Z"/>
      <path d="M1523.75,662.19l5.87.27c1.24.06,2.14,3.22.98,3.8l-4.48,2.25c-1.48.75-4.06-6.39-2.38-6.32Z"/>
      <path d="M1526.52,644.2c-3.48-5.43-3.38-11.54-1.85-16.45,3.09,5.91,3.86,11.41,1.85,16.45Z"/>
    </g>
  </g>
</svg>